<?xml version="1.0" standalone="no"?>
<!DOCTYPE svg PUBLIC "-//W3C//DTD SVG 20010904//EN"
 "http://www.w3.org/TR/2001/REC-SVG-20010904/DTD/svg10.dtd">
<svg version="1.0" xmlns="http://www.w3.org/2000/svg"
 width="1792.000000pt" height="1792.000000pt" viewBox="0 0 1792.000000 1792.000000"
 preserveAspectRatio="xMidYMid meet">
<metadata>
Created by potrace 1.11, written by Peter Selinger 2001-2013
</metadata>
<g transform="translate(0.000000,1792.000000) scale(0.100000,-0.100000)"
fill="#000000" stroke="none">
<path d="M569 11585 c-1 -5 -2 -266 -3 -580 -2 -313 -4 -572 -4 -575 -1 -3
-108 -5 -238 -5 -129 0 -240 -3 -246 -7 -8 -4 -11 -204 -11 -669 l0 -663 24
-7 c13 -3 34 -2 46 2 13 5 25 4 28 -2 4 -5 13 -6 22 -1 8 5 32 6 53 2 21 -4
44 -4 51 1 7 4 20 4 29 -1 9 -5 22 -5 29 -1 7 5 30 5 51 1 21 -4 44 -4 51 1 7
4 20 4 29 -1 9 -5 22 -5 30 0 7 4 23 5 34 0 l21 -7 1 -674 c1 -582 7 -868 19
-889 1 -3 5 -27 9 -55 3 -27 11 -68 16 -90 6 -22 12 -49 14 -60 11 -66 100
-296 118 -303 4 -2 8 -9 8 -15 0 -21 84 -133 154 -203 159 -160 389 -269 651
-310 17 -2 44 -7 60 -9 70 -11 115 -16 190 -20 44 -2 82 -4 85 -5 3 -1 9 -2
13 -1 5 1 34 1 65 1 64 -1 86 0 105 1 13 1 111 0 167 -2 19 -1 41 -1 48 0 6 1
18 1 25 2 12 1 114 0 152 -1 11 -1 27 -1 35 -1 8 0 40 0 70 0 30 0 61 0 68 0
27 2 39 2 102 2 36 -1 72 -1 80 0 8 0 44 0 80 0 36 -1 72 -1 80 0 8 0 44 0 80
0 36 -1 72 -1 80 0 8 0 45 -1 83 -2 37 -1 70 1 73 4 3 3 19 1 35 -3 16 -5 31
-5 34 0 3 5 19 5 35 0 16 -5 31 -5 33 -2 2 4 3 333 3 732 l-1 725 -355 2
c-474 2 -502 5 -548 70 -43 62 -45 85 -46 588 -1 264 0 490 3 502 3 21 9 22
85 23 44 1 88 1 96 1 69 1 349 0 365 -1 11 -1 27 -1 35 -1 8 0 68 0 133 1 86
0 117 3 118 12 0 17 0 1263 0 1303 l-1 30 -403 -1 c-221 -1 -409 0 -417 2 -13
3 -15 76 -14 584 0 319 -2 581 -5 581 -3 1 -435 2 -958 3 -632 1 -953 -2 -954
-9z"/>
<path d="M11116 11590 c-1 -3 -1 -248 0 -545 l1 -540 42 -95 c45 -102 111
-298 111 -328 0 -10 3 -22 7 -26 4 -3 8 -12 9 -19 1 -7 9 -52 18 -102 41 -229
41 -487 0 -690 -9 -44 -17 -88 -17 -97 -1 -19 -4 -19 -155 -20 -40 0 -75 2
-78 4 -2 3 3 40 12 84 8 43 17 95 20 114 2 19 6 58 10 85 17 150 7 412 -20
500 -2 6 -6 24 -10 40 -15 63 -61 173 -100 239 -46 77 -150 189 -217 232 -24
16 -46 31 -49 34 -14 15 -162 82 -233 105 -61 19 -123 34 -214 50 -139 24
-584 24 -688 -1 -11 -2 -33 -6 -50 -8 -107 -14 -206 -38 -297 -72 -37 -14 -69
-24 -71 -22 -2 2 -11 -3 -19 -10 -8 -6 -37 -24 -64 -38 -155 -82 -285 -216
-372 -384 -74 -144 -136 -357 -157 -545 -4 -33 -9 -69 -11 -80 -3 -11 -7 -49
-9 -85 -3 -36 -7 -87 -9 -115 -24 -274 -25 -1190 -1 -1510 10 -132 14 -180 21
-230 3 -27 7 -61 9 -75 2 -14 4 -25 5 -25 1 0 3 -13 5 -30 8 -74 41 -222 55
-247 6 -10 10 -27 10 -38 0 -11 4 -28 9 -38 5 -9 13 -28 19 -42 24 -60 83
-180 94 -192 7 -7 20 -26 28 -42 30 -57 218 -236 249 -236 6 0 11 -4 11 -10 0
-5 6 -10 14 -10 7 0 19 -7 26 -15 7 -8 16 -13 20 -10 5 3 11 1 14 -4 11 -18
227 -94 301 -107 11 -2 41 -8 67 -13 147 -31 478 -44 683 -28 75 6 92 8 163
23 15 3 40 8 57 10 60 12 210 67 283 105 160 84 288 216 360 370 23 51 58 151
66 190 3 13 7 33 9 44 20 88 29 347 16 444 -4 30 -9 71 -10 90 -2 20 -5 40 -7
45 -3 5 -6 23 -8 40 -3 41 -11 85 -19 119 l-7 27 126 0 c113 0 126 -2 127 -17
0 -10 2 -31 4 -48 4 -35 14 -153 20 -245 3 -36 8 -85 11 -110 3 -25 8 -70 10
-100 2 -30 7 -82 9 -115 3 -33 7 -87 10 -120 2 -33 6 -80 9 -105 3 -25 8 -79
12 -120 3 -41 7 -88 9 -105 2 -16 6 -66 9 -110 12 -147 16 -195 19 -208 3 -17
28 -26 51 -17 11 4 36 4 57 0 21 -4 42 -4 48 0 6 3 35 3 65 0 30 -3 62 -3 72
0 10 4 35 4 55 0 21 -4 42 -4 48 0 6 3 35 3 65 0 30 -3 62 -3 72 0 10 4 35 4
55 0 21 -4 42 -4 48 0 6 3 35 3 65 0 30 -3 62 -3 72 0 10 4 35 4 55 0 21 -4
42 -4 48 0 6 3 35 3 65 0 30 -3 62 -3 72 0 10 4 35 4 55 0 21 -4 42 -4 48 0 6
3 35 3 65 0 30 -3 63 -3 73 1 10 3 27 3 38 -1 11 -3 34 -4 50 0 17 3 49 3 72
-1 23 -3 47 -2 54 1 6 4 22 5 35 1 13 -3 43 -5 67 -3 l43 4 0 2574 c0 1416 -2
2575 -5 2575 -19 4 -1913 3 -1915 -1z m-446 -2343 c166 -20 195 -97 140 -376
-5 -30 -8 -56 -5 -59 2 -3 0 -12 -4 -21 -31 -57 -34 -465 -5 -595 5 -22 11
-53 19 -101 3 -16 7 -41 10 -55 20 -96 10 -216 -19 -245 -37 -38 -107 -57
-211 -58 -150 -1 -226 31 -245 103 -12 44 -3 212 14 267 3 10 8 40 11 67 4 28
8 52 10 56 8 14 19 155 19 260 -1 136 -8 219 -29 328 -4 15 -8 38 -10 52 -2
14 -6 39 -9 55 -3 17 -8 67 -12 112 -12 145 28 195 165 210 31 3 57 6 58 7 3
3 51 -1 103 -7z"/>
<path d="M4977 10634 c-1 -1 -38 -5 -82 -8 -97 -8 -150 -13 -190 -21 -16 -3
-33 -5 -37 -6 -4 0 -40 -10 -80 -20 -40 -11 -80 -21 -88 -24 -62 -16 -246
-101 -270 -125 -3 -3 -25 -19 -50 -35 -58 -39 -169 -151 -211 -212 -18 -26
-36 -49 -41 -51 -4 -2 -8 -7 -8 -12 0 -4 -15 -34 -33 -67 -61 -109 -133 -311
-161 -453 -2 -14 -9 -48 -15 -77 -6 -29 -13 -74 -17 -100 -3 -26 -8 -57 -10
-68 -13 -60 -33 -328 -39 -510 -2 -55 -4 -104 -5 -110 -1 -5 -2 -14 0 -20 1
-9 1 -38 -3 -253 -1 -45 2 -82 7 -82 5 0 3 -6 -3 -13 -6 -8 -9 -16 -6 -19 3
-2 7 -87 10 -189 4 -101 8 -204 10 -229 20 -240 23 -279 30 -310 3 -14 7 -47
11 -75 3 -27 7 -52 9 -55 2 -3 6 -26 10 -50 14 -95 74 -304 112 -390 49 -110
110 -216 163 -284 63 -80 245 -236 276 -236 7 0 14 -4 16 -8 5 -13 132 -69
219 -97 97 -31 189 -51 274 -60 33 -4 87 -10 120 -14 103 -12 479 -3 560 13
11 2 43 7 70 11 28 5 52 9 55 10 79 18 127 32 179 52 63 24 164 76 188 97 6 6
27 22 45 35 125 91 229 297 264 526 14 85 6 441 -11 525 -2 13 -7 41 -10 62
-3 20 -12 69 -19 108 l-14 70 32 1 c63 1 221 -2 223 -5 3 -3 10 -61 18 -156 3
-36 7 -81 9 -100 2 -19 7 -73 10 -120 4 -47 9 -103 11 -125 6 -48 15 -160 20
-235 2 -30 6 -77 9 -105 3 -27 8 -79 11 -115 8 -91 13 -154 21 -235 10 -111
12 -128 13 -167 1 -45 25 -72 50 -58 10 5 21 7 24 4 4 -5 48 -5 167 -3 8 0 44
0 80 0 36 -1 72 -1 80 0 8 0 44 0 80 0 36 -1 72 -1 80 0 8 0 44 0 80 0 36 -1
72 -1 80 0 8 0 44 0 80 0 36 -1 72 -1 80 0 33 0 157 -1 180 -2 14 -1 36 -1 50
0 14 0 43 0 65 0 22 0 47 0 55 0 33 2 114 0 119 -3 3 -2 15 0 26 4 11 4 34 4
52 -1 21 -4 33 -3 33 3 0 7 4 7 13 0 7 -6 18 -7 26 -3 8 5 25 6 40 2 14 -4 36
-5 48 -3 l23 3 0 2050 0 2049 -800 -1 c-739 0 -799 -2 -804 -17 -2 -9 -8 -55
-11 -102 -4 -47 -8 -101 -10 -120 -4 -45 -16 -173 -20 -225 -11 -118 -16 -181
-30 -330 -3 -27 -7 -79 -10 -115 -20 -240 -22 -265 -24 -265 -2 0 -14 -163
-15 -207 -1 -18 -7 -28 -16 -28 -106 -4 -229 -2 -237 3 -7 5 -8 20 -2 44 4 21
10 52 13 68 3 17 8 41 11 54 2 13 7 49 11 80 3 31 8 65 11 76 12 54 10 358 -3
441 -50 313 -188 510 -437 623 -25 12 -48 21 -51 21 -2 0 -17 5 -33 12 -32 13
-26 11 -118 33 -106 26 -142 31 -265 41 -69 6 -369 12 -373 8z m848 -1387 c58
-6 117 -34 140 -65 16 -22 20 -42 20 -107 -1 -71 -9 -151 -20 -195 -2 -8 -7
-33 -10 -55 -3 -23 -7 -51 -10 -64 -24 -127 -24 -422 0 -535 2 -12 6 -34 9
-51 2 -16 7 -43 10 -60 58 -307 18 -374 -220 -377 -94 -1 -114 3 -175 28 -67
29 -88 109 -66 256 4 26 9 64 13 85 3 21 7 45 9 53 5 20 15 90 24 175 8 69 6
321 -2 360 -3 11 -8 45 -12 75 -4 30 -9 64 -12 75 -2 11 -6 37 -8 58 -3 21 -7
43 -10 48 -4 5 -8 45 -10 90 -8 145 37 196 184 207 36 2 67 6 69 7 2 2 11 1
20 -1 9 -2 35 -5 57 -7z"/>
<path d="M14677 10634 c-1 -1 -42 -4 -92 -8 -49 -3 -101 -8 -115 -11 -13 -2
-40 -7 -60 -10 -20 -3 -47 -8 -60 -11 -14 -3 -36 -7 -50 -10 -14 -3 -34 -8
-45 -11 -11 -4 -24 -8 -30 -9 -31 -6 -119 -41 -184 -71 -217 -103 -382 -273
-493 -509 -35 -75 -72 -170 -82 -214 -2 -8 -11 -40 -19 -70 -25 -93 -54 -238
-62 -310 -1 -14 -5 -43 -9 -65 -41 -259 -53 -1106 -20 -1470 9 -109 15 -163
20 -190 3 -16 6 -46 8 -65 2 -19 4 -35 5 -35 1 0 4 -16 6 -35 4 -39 9 -66 31
-160 9 -36 18 -75 20 -88 10 -51 63 -202 97 -275 54 -117 98 -186 185 -292 5
-5 35 -34 68 -64 131 -121 319 -216 507 -256 178 -38 286 -48 517 -48 143 0
305 7 305 13 0 1 16 3 35 5 30 3 79 11 115 19 6 1 26 6 45 10 34 7 74 20 115
36 105 42 132 54 146 66 8 8 19 14 23 14 23 0 152 118 198 180 49 67 111 200
124 265 2 11 6 31 9 45 13 59 16 78 22 140 13 124 4 360 -18 490 -6 30 -12 69
-14 85 -2 17 -6 41 -9 55 -3 14 -9 40 -12 58 l-6 32 129 0 c97 0 130 -3 131
-12 5 -57 14 -162 17 -203 2 -27 4 -50 5 -50 1 0 3 -22 5 -50 3 -47 6 -78 20
-230 3 -33 8 -89 10 -124 4 -61 11 -129 20 -201 2 -19 7 -75 10 -125 3 -49 8
-110 10 -135 5 -49 12 -121 20 -214 3 -33 8 -63 12 -67 7 -7 61 -11 103 -8 15
1 115 0 155 -1 11 -1 27 -1 35 -1 8 0 40 0 70 0 30 0 61 0 68 0 27 2 39 2 102
2 36 -1 72 -1 80 0 8 0 44 0 80 0 36 -1 72 -1 80 0 8 0 44 0 80 0 36 -1 72 -1
80 0 8 0 44 0 80 0 36 -1 72 -1 80 0 8 0 44 0 80 0 36 -1 72 -1 80 0 8 0 44 0
80 0 36 -1 72 -1 80 0 8 0 47 0 85 0 39 0 77 0 85 0 13 1 15 235 15 2050 l0
2048 -802 1 c-754 0 -803 -1 -804 -18 -3 -50 -7 -94 -14 -162 -8 -81 -11 -116
-19 -225 -3 -38 -7 -90 -10 -115 -12 -114 -19 -199 -31 -345 -2 -27 -6 -75 -9
-105 -9 -90 -18 -192 -21 -240 -8 -120 -16 -185 -24 -193 -5 -5 -63 -9 -129
-10 l-121 -2 4 35 c4 33 7 51 20 110 43 201 49 508 14 690 -22 113 -87 273
-131 320 -10 10 -18 22 -18 26 0 14 -144 144 -160 144 -6 0 -10 3 -10 8 0 4
-24 19 -53 34 -59 30 -177 79 -177 73 0 -3 -12 0 -27 6 -16 6 -39 13 -53 16
-42 8 -55 11 -55 13 0 3 -106 17 -200 26 -64 6 -372 13 -378 8z m934 -1410
c29 -14 60 -53 67 -83 7 -28 6 -114 -2 -166 -5 -27 -10 -61 -11 -75 -2 -14 -9
-54 -15 -90 -6 -36 -14 -78 -17 -95 -9 -54 -11 -359 -3 -415 10 -67 20 -127
26 -160 33 -185 36 -285 10 -325 -36 -55 -113 -79 -246 -77 -113 1 -179 25
-211 75 -18 28 -20 43 -15 127 5 94 12 151 21 180 3 8 7 36 10 62 3 25 8 57
10 69 24 119 23 371 0 490 -3 13 -7 42 -10 64 -2 22 -11 81 -20 130 -19 103
-16 212 8 248 8 13 32 32 53 42 73 34 277 34 345 -1z"/>
</g>
</svg>
