<?xml version="1.0" encoding="UTF-8"?>
<svg width="224px" height="67px" viewBox="0 0 224 67" version="1.1" xmlns="http://www.w3.org/2000/svg" xmlns:xlink="http://www.w3.org/1999/xlink">
    <!-- Generator: Sketch 50.2 (55047) - http://www.bohemiancoding.com/sketch -->
    <title>tada</title>
    <desc>Created with Sketch.</desc>
    <defs></defs>
    <g id="Page-1" stroke="none" stroke-width="1" fill="none" fill-rule="evenodd">
        <g id="Artboard" transform="translate(-84.000000, -91.000000)" fill="#3928D6">
            <path d="M84.84,123 L84.84,106.2 L91.08,106.2 L91.08,91.56 L115.08,91.56 L115.08,106.2 L125.52,106.2 L125.52,123 L115.08,123 L115.08,134.64 C115.08,136.8 115.8,137.76 117.84,137.76 L126.96,137.76 L126.96,156 L108.72,156 C95.88,156 91.08,149.88 91.08,138.6 L91.08,123 L84.84,123 Z M186.36,104.76 L186.36,156 L166.32,156 L164.76,138.24 L161.52,138.24 C162.12,141 162.36,143.28 162.36,145.32 C162.36,154.56 156.72,157.2 148.2,157.2 L147.72,157.2 C132.12,157.2 129.48,147.6 129.48,130.32 C129.48,113.16 132.12,103.56 147.72,103.56 L148.2,103.56 C156.72,103.56 162.36,106.2 162.36,115.44 C162.36,117.36 162.12,119.76 161.52,122.4 L164.76,122.4 L166.32,104.76 L186.36,104.76 Z M158.04,130.32 C158.04,127.08 158.88,124.68 158.88,123 C158.88,121.56 158.28,120.84 155.76,120.84 C153.24,120.84 152.64,121.56 152.64,123 C152.64,124.68 153.48,127.08 153.48,130.32 C153.48,133.56 152.64,135.96 152.64,137.64 C152.64,139.08 153.24,139.8 155.76,139.8 C158.28,139.8 158.88,139.08 158.88,137.64 C158.88,135.96 158.04,133.56 158.04,130.32 Z M246.96,91.56 L246.96,156 L226.8,156 L225.24,138.24 L222.12,138.24 C222.6,140.52 222.84,142.56 222.84,144.48 C222.84,154.32 216,157.2 208.44,157.2 L207.96,157.2 C190.92,157.2 190.08,147.6 190.08,130.32 C190.08,113.16 190.92,103.56 207.96,103.56 L208.44,103.56 C216,103.56 222.84,106.44 222.84,116.28 C222.84,118.08 222.6,120.12 222.12,122.4 L225,122.4 C225.48,120.48 225.72,118.56 225.72,116.64 C225.72,112.32 224.52,108.48 222.96,105.12 L222.96,91.56 L246.96,91.56 Z M218.64,130.32 C218.64,127.08 219.48,124.68 219.48,123 C219.48,121.56 218.88,120.84 216.36,120.84 C213.84,120.84 213.24,121.56 213.24,123 C213.24,124.68 214.08,127.08 214.08,130.32 C214.08,133.56 213.24,135.96 213.24,137.64 C213.24,139.08 213.84,139.8 216.36,139.8 C218.88,139.8 219.48,139.08 219.48,137.64 C219.48,135.96 218.64,133.56 218.64,130.32 Z M307.56,104.76 L307.56,156 L287.52,156 L285.96,138.24 L282.72,138.24 C283.32,141 283.56,143.28 283.56,145.32 C283.56,154.56 277.92,157.2 269.4,157.2 L268.92,157.2 C253.32,157.2 250.68,147.6 250.68,130.32 C250.68,113.16 253.32,103.56 268.92,103.56 L269.4,103.56 C277.92,103.56 283.56,106.2 283.56,115.44 C283.56,117.36 283.32,119.76 282.72,122.4 L285.96,122.4 L287.52,104.76 L307.56,104.76 Z M279.24,130.32 C279.24,127.08 280.08,124.68 280.08,123 C280.08,121.56 279.48,120.84 276.96,120.84 C274.44,120.84 273.84,121.56 273.84,123 C273.84,124.68 274.68,127.08 274.68,130.32 C274.68,133.56 273.84,135.96 273.84,137.64 C273.84,139.08 274.44,139.8 276.96,139.8 C279.48,139.8 280.08,139.08 280.08,137.64 C280.08,135.96 279.24,133.56 279.24,130.32 Z" id="tada"></path>
        </g>
    </g>
</svg>